<?xml version="1.0" encoding="UTF-8"?>
<svg width="1030px" height="1030px" viewBox="0 0 1030 1030" version="1.1" xmlns="http://www.w3.org/2000/svg" xmlns:xlink="http://www.w3.org/1999/xlink">
    <!-- Generator: Sketch 48.2 (47327) - http://www.bohemiancoding.com/sketch -->
    <title>Artboard Copy 3</title>
    <desc>Created with Sketch.</desc>
    <defs></defs>
    <g id="Page-1" stroke="none" stroke-width="1" fill="none" fill-rule="evenodd">
        <g id="Artboard-Copy-3">
            <g id="Page-1" transform="translate(7.000000, 7.000000)" stroke="#000000" stroke-width="10">
                <path d="M508,-0.000100197239 C788.561286,-0.000100197239 1016,227.439616 1016,507.9999 C1016,788.560184 788.561286,1015.9999 508,1015.9999 C227.439716,1015.9999 0,788.560184 0,507.9999 C0,227.439616 227.439716,-0.000100197239 508,-0.000100197239 Z" id="Stroke-4"></path>
            </g>
            <g id="Group" transform="translate(8.000000, 8.000000)">
                <path d="M507,-0.0001 C787.009,-0.0001 1014,226.9919 1014,506.9999 C1014,787.0079 787.009,1013.9999 507,1013.9999 C226.992,1013.9999 0,787.0079 0,506.9999 C0,226.9919 226.992,-0.0001 507,-0.0001 Z" id="Stroke-4" stroke="#000000" stroke-width="10" fill="#000000"></path>
                <path d="M507.5,649 C429.351708,649 366,585.648292 366,507.5 C366,429.351708 429.351708,366 507.5,366 C585.648292,366 649,429.351708 649,507.5 C649,585.648292 585.648292,649 507.5,649 Z M507.5,604.860071 C561.270483,604.860071 604.860071,561.270483 604.860071,507.5 C604.860071,453.729517 561.270483,410.139929 507.5,410.139929 C453.729517,410.139929 410.139929,453.729517 410.139929,507.5 C410.139929,561.270483 453.729517,604.860071 507.5,604.860071 Z" id="Oval" fill="#FFFFFF" fill-rule="nonzero"></path>
                <path d="M662,400 C641.565464,400 625,383.434536 625,363 C625,342.565464 641.565464,326 662,326 C682.434536,326 699,342.565464 699,363 C699,383.434536 682.434536,400 662,400 Z M662,362.436548 C661.688814,362.436548 661.436548,362.688814 661.436548,363 C661.436548,363.311186 661.688814,363.563452 662,363.563452 C662.311186,363.563452 662.563452,363.311186 662.563452,363 C662.563452,362.688814 662.311186,362.436548 662,362.436548 Z" id="Oval" fill="#FFFFFF" fill-rule="nonzero"></path>
                <path d="M369.078652,271.202247 C315.023006,271.202247 271.202247,315.023006 271.202247,369.078652 L271.202247,646.921348 C271.202247,700.976994 315.023006,744.797753 369.078652,744.797753 L646.921348,744.797753 C700.976994,744.797753 744.797753,700.976994 744.797753,646.921348 L744.797753,369.078652 C744.797753,315.023006 700.976994,271.202247 646.921348,271.202247 L369.078652,271.202247 Z M369.078652,227 L646.921348,227 C725.389221,227 789,290.610779 789,369.078652 L789,646.921348 C789,725.389221 725.389221,789 646.921348,789 L369.078652,789 C290.610779,789 227,725.389221 227,646.921348 L227,369.078652 C227,290.610779 290.610779,227 369.078652,227 Z" id="Rectangle-path" fill="#FFFFFF" fill-rule="nonzero"></path>
            </g>
        </g>
    </g>
</svg>