<svg xmlns="http://www.w3.org/2000/svg" width="4267" height="16288" viewBox="0 0 4267 16288">
  <defs>
    <style>
      .cls-1 {
        fill-rule: evenodd;
      }
    </style>
  </defs>
  <path id="A_" data-name="A " class="cls-1" d="M971.8,1162.53H1479.09q-59.52-61.695-59.5-143.11,0-89.264,68.89-192.993l34.45-49.89h754.66l144.04,181.179,18.79,24.945q40.665,47.264,56.37,74.179a112.012,112.012,0,0,1,15.65,57.11q0,21.015-9.39,48.58h601.23q-103.335-57.765-144.05-93.88-40.725-36.09-100.2-110.934L2456.08,445.69q-50.13-63.018-67.32-93.871-17.25-30.833-17.23-68.927,0-26.247,3.13-42.012l-607.49,1.313,59.5,26.258L1435.25,826.427q-59.52,82.712-181.62,175.923Q1131.5,1095.59,971.8,1162.53h0ZM1538.58,754.218L1864.25,290.77a504.738,504.738,0,0,1,75.15,62.362q34.425,34.8,78.29,92.558l244.24,308.528H1538.58Z"/>
  <path id="B_" data-name="B " class="cls-1" d="M1937.13,4157.17q391.395,0,695.17-56.46,303.69-56.46,471.27-150.98,167.475-94.53,167.53-204.81,0-84-104.9-152.29-104.955-68.25-277.13-98.47,134.595-34.125,203.54-84.68,68.85-50.535,68.89-107,0-60.375-76.72-112.25-76.77-51.855-223.89-83.37-147.225-31.515-347.59-31.51H1642.78q-216.075,0-396.12,36.76-180.105,36.765-284.958,101.75-104.95,64.98-104.9,147.7,0,49.905,48.537,93.21,48.512,43.335,136.213,69.59,87.63,26.265,194.15,26.25,81.39,0,150.3-19.69,68.85-19.7,106.47-59.08-140.91,0-217.63-50.55-76.77-50.52-76.72-122.75,0-86.655,89.25-141.79t261.47-55.14q187.875,0,181.62,160.17V3834.2q0,51.2-14.09,83.36-14.1,32.19-67.33,79.43h519.81V3500.72l50.1,7.88q21.87-1.29,65.76-1.31,256.725,0,411.78,66.95,155.01,66.96,155,181.18,0,112.935-126.82,200.87t-341.32,136.54q-214.515,48.57-465.01,48.58-178.485,0-330.36-31.51-151.92-31.5-241.12-87.3-89.235-55.8-89.24-125.39,0-61.7,81.41-106.34,81.4-44.61,219.2-44.64,15.63,0,59.5,2.63-40.74-44.625-123.69-67.61-83.01-22.965-186.32-22.98-112.725,0-203.54,26.26-90.855,26.28-140.912,70.89-50.127,44.655-50.1,95.84,0,89.295,147.175,158.86,147.15,69.57,383.6,108.32,236.385,38.7,493.19,38.73h0Zm231.72-673.51V3088.48l28.18,15.75q65.76-3.93,122.13-3.94,156.54,0,267.73,26.26,111.12,26.28,167.53,68.27,56.37,42.03,56.37,90.59,0,51.2-59.5,95.84-59.52,44.655-181.62,71.55-122.13,26.925-294.35,26.92Z"/>
  <path id="R_" data-name="R " class="cls-1" d="M3633.05,2991.2q219.15,0,391.42-32.17,172.185-32.19,267.74-82.71,95.475-50.565,95.5-101.75,0-47.265-109.6-80.74-109.635-33.48-275.56-36.11a170.129,170.129,0,0,1,9.4,55.14q0,68.25-53.24,127.35-53.28,59.085-144.04,93.88-90.855,34.77-191.02,34.79-162.855,0-291.21-55.8Q3204,2857.265,3136.72,2748.31q-67.365-108.99-57.93-263.89,6.24-124.71-40.71-208.09-46.965-83.355-172.22-133.91-125.28-50.535-347.59-68.93,237.945-48.555,374.21-134.57,136.215-85.98,136.21-183.15,0-111.57-148.74-192.34-148.77-80.73-405.51-122.75-256.8-42-576.18-42.01-335.115,0-593.4,49.23-258.33,49.23-399.25,132.6T764.7,1762.34q0,66.945,75.153,109.62t191.019,42.67q65.745,0,123.69-11.16,57.9-11.145,95.5-32.16-59.52-23.64-90.81-58.43-31.335-34.77-31.31-75.49,0-86.655,90.81-158.86,90.78-72.18,261.47-114.88,170.64-42.645,402.38-42.66,225.465,0,400.82,39.38,175.335,39.39,275.56,112.25,100.185,72.87,100.21,168.71,0,77.475-82.98,148.36-83.01,70.89-248.95,119.47-166.005,48.585-397.69,57.77V1636.3H1409.76q53.22,47.265,67.33,79.43,14.085,32.19,14.09,83.37v596.05q0,51.2-14.09,83.36-14.1,32.19-67.33,79.43h601.23q-56.37-56.43-68.89-92.55-12.555-36.1-12.53-112.26V2089.24q297.465,0,452.49,37.42t212.93,120.13q57.915,82.71,51.67,235.01-12.555,254.685,239.55,382.05,252.03,127.32,746.84,127.35h0Z"/>
</svg>
